<svg width="93" height="90" viewBox="0 0 93 90" fill="none" xmlns="http://www.w3.org/2000/svg">
<path d="M36.3494 31.4274L40.6493 16.8294C42.2605 11.3652 50.2389 11.3652 51.8502 16.8294L56.1451 31.4274C56.4171 32.3508 56.9269 33.1918 57.6266 33.8709C58.3263 34.55 59.1927 35.0449 60.1441 35.3089L75.1837 39.4777C80.8133 41.0416 80.8133 48.7857 75.1837 50.3496L60.1441 54.5184C59.1927 54.7824 58.3263 55.2773 57.6266 55.9564C56.9269 56.6355 56.4171 57.4765 56.1451 58.3999L51.8502 72.9979C50.2389 78.4621 42.2605 78.4621 40.6493 72.9979L36.3543 58.3999C36.0824 57.4765 35.5725 56.6355 34.8728 55.9564C34.1732 55.2773 33.3068 54.7824 32.3554 54.5184L17.3157 50.3496C11.6861 48.7857 11.6861 41.0416 17.3157 39.4777L32.3554 35.3089C33.3068 35.0449 34.1732 34.55 34.8728 33.8709C35.5725 33.1918 36.0824 32.3508 36.3543 31.4274" fill="#4177FF" fill-opacity="0.16"/>
<path d="M36.3497 31.4274L40.6495 16.8294C42.2608 11.3652 50.2392 11.3652 51.8504 16.8294L56.1454 31.4274C56.4173 32.3508 56.9272 33.1918 57.6269 33.8709C58.3266 34.55 59.193 35.0449 60.1443 35.3089L75.184 39.4777C80.8136 41.0416 80.8136 48.7857 75.184 50.3496L60.1443 54.5184C59.193 54.7824 58.3266 55.2773 57.6269 55.9564C56.9272 56.6355 56.4173 57.4765 56.1454 58.3999L51.8504 72.9979C50.2392 78.4621 42.2608 78.4621 40.6495 72.9979L36.3546 58.3999C36.0826 57.4765 35.5728 56.6355 34.8731 55.9564C34.1734 55.2773 33.307 54.7824 32.3556 54.5184L17.316 50.3496C11.6864 48.7857 11.6864 41.0416 17.316 39.4777L32.3556 35.3089C33.307 35.0449 34.1734 34.55 34.8731 33.8709C35.5728 33.1918 36.0826 32.3508 36.3546 31.4274M9.51222 8.56243L11.337 1.46365C11.5796 0.512118 12.9773 0.512118 13.22 1.46365L15.0496 8.56243C15.0917 8.72819 15.1794 8.87974 15.3033 9.00088C15.4273 9.12201 15.5828 9.20818 15.7533 9.25017L23.0717 11.026C24.052 11.2616 24.052 12.6135 23.0717 12.8537L15.7533 14.6296C15.5834 14.6712 15.4283 14.7567 15.3044 14.8769C15.1805 14.9972 15.0924 15.1477 15.0496 15.3126L13.22 22.4161C12.9773 23.3677 11.5796 23.3677 11.337 22.4161L9.50737 15.3126C9.46451 15.1477 9.37647 14.9972 9.25257 14.8769C9.12868 14.7567 8.97356 14.6712 8.80368 14.6296L1.48524 12.8537C0.50492 12.6182 0.50492 11.2616 1.48524 11.026L8.80368 9.25017C8.97416 9.20818 9.12969 9.12201 9.25364 9.00088C9.37758 8.87974 9.47014 8.72819 9.51222 8.56243ZM77.4553 74.5147L79.28 67.4112C79.5227 66.4597 80.9155 66.4597 81.163 67.4112L82.9926 74.5147C83.0355 74.6796 83.1235 74.8301 83.2474 74.9504C83.3713 75.0707 83.5264 75.1561 83.6963 75.1977L91.0148 76.9736C91.9951 77.2091 91.9951 78.561 91.0148 78.8013L83.6963 80.5771C83.5264 80.6188 83.3713 80.7042 83.2474 80.8245C83.1235 80.9447 83.0355 81.0953 82.9926 81.2602L81.163 88.3637C80.9204 89.3152 79.5275 89.3152 79.28 88.3637L77.4504 81.2602C77.4076 81.0953 77.3195 80.9447 77.1956 80.8245C77.0717 80.7042 76.9166 80.6188 76.7467 80.5771L69.4283 78.8013C68.448 78.5658 68.448 77.2091 69.4283 76.9736L76.7467 75.1977C76.9166 75.1561 77.0717 75.0707 77.1956 74.9504C77.3195 74.8301 77.4124 74.6796 77.4553 74.5147Z" stroke="#4177FF" stroke-width="1.5" stroke-miterlimit="10" stroke-linecap="round" stroke-linejoin="round"/>
</svg>
