<svg width="18" height="18" viewBox="0 0 18 18" fill="none" xmlns="http://www.w3.org/2000/svg">
<path d="M0.513602 16.0601C1.47339 17.4331 5.64919 18.5102 7.62232 15.9411C9.75613 16.9612 13.2748 16.645 16.1405 15.0467C16.5384 14.8257 16.915 14.5452 17.1462 14.1507C17.6674 13.2623 17.6793 12.0296 16.7288 10.2112C15.1434 6.25468 12.2929 2.78104 11.1418 1.38427C10.9055 1.16919 9.39823 0.863141 8.4784 0.568145C8.07204 0.443175 7.31628 0.359863 6.4126 1.55175C5.98329 2.11624 4.03566 3.5045 6.50611 4.4371C6.88952 4.53486 7.17091 4.71424 8.91791 4.39544C9.14489 4.35633 9.71277 4.39544 10.1132 5.09765L10.9497 6.29379C11.0279 6.40459 11.0773 6.53316 11.0934 6.66784C11.2396 7.94219 11.2345 9.53704 11.9452 10.3455C10.8485 9.55149 7.98022 8.60954 5.81921 11.2909M0.5 9.79888C1.47282 8.93178 2.71307 8.42369 4.01463 8.35904C5.31618 8.2944 6.60067 8.67709 7.65463 9.44352" stroke="white" stroke-linecap="round" stroke-linejoin="round"/>
</svg>
