<svg width="18" height="17" viewBox="0 0 18 17" fill="none" xmlns="http://www.w3.org/2000/svg">
<path d="M17.3077 6.79688H16.5834C16.4094 4.93895 15.5352 3.21191 14.1323 1.95449C12.7294 0.697071 10.899 0 9 0C7.10104 0 5.27059 0.697071 3.86767 1.95449C2.46475 3.21191 1.59059 4.93895 1.41663 6.79688H0.692308C0.508696 6.79688 0.332605 6.86854 0.202772 6.99611C0.0729393 7.12367 0 7.29668 0 7.47709C0.00304183 9.09472 0.456138 10.6808 1.31029 12.0637C2.16444 13.4466 3.38714 14.5738 4.84615 15.3233V15.6396C4.84615 16.0004 4.99203 16.3464 5.2517 16.6015C5.51136 16.8567 5.86355 17 6.23077 17H11.7692C12.1365 17 12.4886 16.8567 12.7483 16.6015C13.008 16.3464 13.1538 16.0004 13.1538 15.6396V15.3233C14.6129 14.5738 15.8356 13.4466 16.6897 12.0637C17.5439 10.6808 17.997 9.09472 18 7.47709C18 7.29668 17.9271 7.12367 17.7972 6.99611C17.6674 6.86854 17.4913 6.79688 17.3077 6.79688ZM15.191 6.79688H10.7412C11.5805 5.55965 12.8503 4.66571 14.3126 4.28266C14.7907 5.04675 15.0907 5.90537 15.191 6.79688ZM12.9358 2.73518C13.0944 2.86272 13.2464 2.99735 13.3918 3.13906C11.5489 3.77603 10.0259 5.08513 9.13846 6.79518H6.58558C7.01828 5.60348 7.81489 4.57209 8.86658 3.84192C9.91828 3.11175 11.1738 2.71841 12.4615 2.71563C12.6199 2.71563 12.7783 2.72328 12.9358 2.73518ZM9 1.35521C9.55554 1.35571 10.1085 1.4292 10.6442 1.57373C9.33961 1.8917 8.14334 2.54195 7.17601 3.45894C6.20867 4.37593 5.50446 5.52726 5.13433 6.79688H2.80904C2.98077 5.30115 3.70672 3.91983 4.8485 2.91624C5.99027 1.91265 7.46801 1.357 9 1.35521ZM12.1725 14.2792C12.0517 14.3337 11.9495 14.4212 11.878 14.5313C11.8065 14.6413 11.7687 14.7693 11.7692 14.8999V15.6396H6.23077V14.8999C6.23128 14.7693 6.19352 14.6413 6.12201 14.5313C6.0505 14.4212 5.94826 14.3337 5.8275 14.2792C4.61001 13.7287 3.5613 12.8733 2.78663 11.7988C2.01196 10.7242 1.5386 9.46838 1.41404 8.15729H16.5834C16.4591 9.46812 15.9861 10.7238 15.2119 11.7983C14.4377 12.8728 13.3895 13.7284 12.1725 14.2792Z" fill="white"/>
</svg>
