<svg width="21" height="21" viewBox="0 0 21 21" fill="none" xmlns="http://www.w3.org/2000/svg">
<g clip-path="url(#clip0_216_140)">
<path d="M6.475 6.125H4.025C3.88576 6.125 3.75223 6.18031 3.65377 6.27877C3.55531 6.37723 3.5 6.51076 3.5 6.65V14.35C3.5 14.4189 3.51358 14.4872 3.53996 14.5509C3.56635 14.6146 3.60502 14.6725 3.65377 14.7212C3.70252 14.77 3.7604 14.8087 3.82409 14.835C3.88779 14.8614 3.95606 14.875 4.025 14.875H6.475C6.54394 14.875 6.61221 14.8614 6.67591 14.835C6.7396 14.8087 6.79748 14.77 6.84623 14.7212C6.89498 14.6725 6.93365 14.6146 6.96004 14.5509C6.98642 14.4872 7 14.4189 7 14.35V6.65C7 6.51076 6.94469 6.37723 6.84623 6.27877C6.74777 6.18031 6.61424 6.125 6.475 6.125ZM16.975 6.125H14.525C14.3858 6.125 14.2522 6.18031 14.1538 6.27877C14.0553 6.37723 14 6.51076 14 6.65V14.35C14 14.4189 14.0136 14.4872 14.04 14.5509C14.0663 14.6146 14.105 14.6725 14.1538 14.7212C14.2025 14.77 14.2604 14.8087 14.3241 14.835C14.3878 14.8614 14.4561 14.875 14.525 14.875H16.975C17.0439 14.875 17.1122 14.8614 17.1759 14.835C17.2396 14.8087 17.2975 14.77 17.3462 14.7212C17.395 14.6725 17.4337 14.6146 17.46 14.5509C17.4864 14.4872 17.5 14.4189 17.5 14.35V6.65C17.5 6.51076 17.4447 6.37723 17.3462 6.27877C17.2478 6.18031 17.1142 6.125 16.975 6.125Z" stroke="white" stroke-linecap="round" stroke-linejoin="round"/>
<path d="M7 10.5H14M0.875 12.6V8.4C0.875 8.26076 0.930312 8.12723 1.02877 8.02877C1.12723 7.93031 1.26076 7.875 1.4 7.875H2.975C3.11424 7.875 3.24777 7.93031 3.34623 8.02877C3.44469 8.12723 3.5 8.26076 3.5 8.4V12.6C3.5 12.7392 3.44469 12.8728 3.34623 12.9712C3.24777 13.0697 3.11424 13.125 2.975 13.125H1.4C1.26076 13.125 1.12723 13.0697 1.02877 12.9712C0.930312 12.8728 0.875 12.7392 0.875 12.6ZM20.125 12.6V8.4C20.125 8.26076 20.0697 8.12723 19.9712 8.02877C19.8728 7.93031 19.7392 7.875 19.6 7.875H18.025C17.8858 7.875 17.7522 7.93031 17.6538 8.02877C17.5553 8.12723 17.5 8.26076 17.5 8.4V12.6C17.5 12.7392 17.5553 12.8728 17.6538 12.9712C17.7522 13.0697 17.8858 13.125 18.025 13.125H19.6C19.7392 13.125 19.8728 13.0697 19.9712 12.9712C20.0697 12.8728 20.125 12.7392 20.125 12.6Z" stroke="white" stroke-linecap="round" stroke-linejoin="round"/>
</g>
<defs>
<clipPath id="clip0_216_140">
<rect width="21" height="21" fill="white"/>
</clipPath>
</defs>
</svg>
