<svg width="22" height="22" viewBox="0 0 22 22" fill="none" xmlns="http://www.w3.org/2000/svg">
<path d="M19.4793 11H8.15391M4.15633 11H2.521M4.15633 11C4.15633 10.47 4.36687 9.96173 4.74163 9.58697C5.11639 9.21221 5.62467 9.00167 6.15466 9.00167C6.68465 9.00167 7.19294 9.21221 7.5677 9.58697C7.94246 9.96173 8.153 10.47 8.153 11C8.153 11.53 7.94246 12.0383 7.5677 12.413C7.19294 12.7878 6.68465 12.9983 6.15466 12.9983C5.62467 12.9983 5.11639 12.7878 4.74163 12.413C4.36687 12.0383 4.15633 11.53 4.15633 11ZM19.4793 17.0564H14.2103M14.2103 17.0564C14.2103 17.5865 13.9993 18.0954 13.6244 18.4702C13.2496 18.8451 12.7412 19.0557 12.2111 19.0557C11.6811 19.0557 11.1728 18.8442 10.798 18.4695C10.4233 18.0947 10.2127 17.5864 10.2127 17.0564M14.2103 17.0564C14.2103 16.5263 13.9993 16.0184 13.6244 15.6435C13.2496 15.2687 12.7412 15.0581 12.2111 15.0581C11.6811 15.0581 11.1728 15.2686 10.798 15.6434C10.4233 16.0181 10.2127 16.5264 10.2127 17.0564M10.2127 17.0564H2.521M19.4793 4.94359H16.6331M12.6355 4.94359H2.521M12.6355 4.94359C12.6355 4.41359 12.846 3.90531 13.2208 3.53055C13.5956 3.15579 14.1038 2.94525 14.6338 2.94525C14.8963 2.94525 15.1561 2.99694 15.3986 3.09737C15.641 3.19779 15.8613 3.34499 16.0469 3.53055C16.2324 3.71611 16.3796 3.93641 16.48 4.17886C16.5805 4.4213 16.6322 4.68116 16.6322 4.94359C16.6322 5.20601 16.5805 5.46587 16.48 5.70831C16.3796 5.95076 16.2324 6.17106 16.0469 6.35662C15.8613 6.54218 15.641 6.68938 15.3986 6.7898C15.1561 6.89023 14.8963 6.94192 14.6338 6.94192C14.1038 6.94192 13.5956 6.73138 13.2208 6.35662C12.846 5.98186 12.6355 5.47358 12.6355 4.94359Z" stroke="white" stroke-width="1.5" stroke-miterlimit="10" stroke-linecap="round"/>
</svg>
