<svg width="28" height="28" viewBox="0 0 28 28" fill="none" xmlns="http://www.w3.org/2000/svg">
<path d="M25.6667 4.66667V5.35033C25.6667 5.54633 25.6667 5.6455 25.662 5.74C25.6185 6.53606 25.3044 7.29338 24.7719 7.88667C24.7089 7.95783 24.6389 8.02667 24.5 8.16667C24.3612 8.30667 24.2912 8.3755 24.22 8.4385C23.6268 8.97105 22.8694 9.28509 22.0734 9.32867C21.9789 9.33333 21.8797 9.33333 21.6837 9.33333H19.1497C18.9537 9.33333 18.8545 9.33333 18.76 9.32867C17.964 9.28509 17.2067 8.97105 16.6134 8.4385C16.5175 8.35051 16.4242 8.25986 16.3334 8.16667M23.9167 8.75L23.3334 11.6667L22.526 14.4935C22.2878 15.3271 22.1669 16.1897 22.1667 17.0567V17.4207C22.1667 17.8624 22.1978 18.3019 22.26 18.739L22.75 23.3333M4.08337 8.75L4.66671 11.6667L5.47404 14.4935C5.71228 15.3271 5.83322 16.1897 5.83337 17.0567V17.4207C5.83345 17.8618 5.80227 18.3023 5.74004 18.739L5.25004 23.3333M2.33337 4.66667V5.35033C2.33337 5.54633 2.33337 5.6455 2.33804 5.74C2.38161 6.53606 2.69566 7.29338 3.22821 7.88667C3.29121 7.95783 3.36121 8.02667 3.50004 8.16667C3.63887 8.30667 3.70887 8.3755 3.78004 8.4385C4.37333 8.97105 5.13065 9.28509 5.92671 9.32867C6.02121 9.33333 6.12037 9.33333 6.31637 9.33333H8.85037C9.04637 9.33333 9.14554 9.33333 9.24004 9.32867C10.0361 9.28509 10.7934 8.97105 11.3867 8.4385C11.4579 8.3755 11.5267 8.3055 11.6667 8.16667M17.5 15.1667H16.3334C15.7145 15.1667 15.121 14.9208 14.6835 14.4832C14.2459 14.0457 14 13.4522 14 12.8333C14 13.4522 13.7542 14.0457 13.3166 14.4832C12.879 14.9208 12.2855 15.1667 11.6667 15.1667H10.5M17.5 21H16.3334C15.7145 21 15.121 20.7542 14.6835 20.3166C14.2459 19.879 14 19.2855 14 18.6667C14 19.2855 13.7542 19.879 13.3166 20.3166C12.879 20.7542 12.2855 21 11.6667 21H10.5" stroke="#3360D0" stroke-width="1.5" stroke-linecap="round" stroke-linejoin="round"/>
</svg>
