<svg width="24" height="24" viewBox="0 0 24 24" fill="none" xmlns="http://www.w3.org/2000/svg">
<path d="M6.5 13H7.5C8.88 13 10 11.88 10 10.5C10 9.12 8.88 8 7.5 8H5.5C4.12 8 3 9.12 3 10.5V15C3 15.7956 3.31607 16.5587 3.87868 17.1213C4.44129 17.6839 5.20435 18 6 18M6 18H18M6 18V21C6 21.2652 6.10536 21.5196 6.29289 21.7071C6.48043 21.8946 6.73478 22 7 22H17C17.55 22 18 21.55 18 21V18M18 18C18.7956 18 19.5587 17.6839 20.1213 17.1213C20.6839 16.5587 21 15.7956 21 15V13C21 12.4696 20.7893 11.9609 20.4142 11.5858C20.0391 11.2107 19.5304 11 19 11H12" stroke="#3360D0" stroke-width="2" stroke-miterlimit="2" stroke-linecap="round" stroke-linejoin="round"/>
<path d="M3 10C2.5 10 2 9 2 8V6C2 3.79 3.79 2 6 2H18C20.21 2 22 3.79 22 6V8C22 9.655 20.655 11 19 11H9.95" stroke="#3360D0" stroke-width="2" stroke-miterlimit="2" stroke-linecap="round" stroke-linejoin="round"/>
</svg>
