<svg width="27" height="27" viewBox="0 0 27 27" fill="none" xmlns="http://www.w3.org/2000/svg">
<path d="M3.3749 9.29644V9.28125C3.37488 7.78116 3.81915 6.31467 4.65166 5.0668C5.48417 3.81893 6.66763 2.84558 8.05271 2.26956C9.4378 1.69353 10.9625 1.54065 12.4343 1.83018C13.9062 2.11972 15.2594 2.83871 16.3231 3.89644C17.16 3.48336 18.0948 3.30968 19.0243 3.39459C19.9537 3.4795 20.8416 3.81969 21.5898 4.37759C22.3381 4.93548 22.9175 5.68935 23.2641 6.55591C23.6108 7.42248 23.7111 8.36799 23.554 9.288C23.7849 9.30943 24.0089 9.37823 24.2121 9.49009C24.4152 9.60195 24.5931 9.75449 24.7347 9.93817C24.8762 10.1219 24.9784 10.3327 25.0349 10.5577C25.0913 10.7826 25.1007 11.0168 25.0626 11.2455C24.2999 15.8338 22.4133 18.738 19.4061 19.9598V21.0938C19.4061 21.7651 19.1395 22.4089 18.6648 22.8836C18.1901 23.3583 17.5462 23.625 16.8749 23.625H10.1249C9.45357 23.625 8.80973 23.3583 8.33503 22.8836C7.86033 22.4089 7.59365 21.7651 7.59365 21.0938V19.9598C4.58652 18.738 2.6999 15.8338 1.93715 11.2455C1.90034 11.0228 1.90857 10.795 1.96135 10.5756C2.01414 10.3562 2.11041 10.1495 2.24447 9.96796C2.37852 9.78639 2.54764 9.63355 2.74181 9.5185C2.93598 9.40344 3.15125 9.32851 3.3749 9.29813V9.29644ZM5.0624 9.28125H6.7499C6.7499 8.16237 7.19437 7.08931 7.98554 6.29814C8.77671 5.50698 9.84977 5.0625 10.9686 5.0625C12.0875 5.0625 13.1606 5.50698 13.9518 6.29814C14.7429 7.08931 15.1874 8.16237 15.1874 9.28125H16.8749C16.8749 7.71482 16.2526 6.21254 15.145 5.1049C14.0374 3.99727 12.5351 3.375 10.9686 3.375C9.40221 3.375 7.89994 3.99727 6.7923 5.1049C5.68466 6.21254 5.0624 7.71482 5.0624 9.28125ZM8.4374 9.28125H13.4999C13.4999 8.60992 13.2332 7.96609 12.7585 7.49139C12.2838 7.01669 11.64 6.75 10.9686 6.75C10.2973 6.75 9.65348 7.01669 9.17878 7.49139C8.70408 7.96609 8.4374 8.60992 8.4374 9.28125ZM20.0238 9.28125H21.8311C21.9585 8.78255 21.9704 8.26134 21.8658 7.75736C21.7613 7.25337 21.5431 6.77989 21.2278 6.37301C20.9125 5.96613 20.5086 5.63658 20.0467 5.40947C19.5848 5.18237 19.0771 5.06369 18.5624 5.0625C18.1574 5.0625 17.7726 5.13338 17.4149 5.26331C17.7136 5.74256 17.96 6.25894 18.149 6.80063C18.4704 6.72091 18.8081 6.73732 19.1203 6.84783C19.4324 6.95834 19.7053 7.15808 19.905 7.42227C20.1046 7.68645 20.2223 8.00345 20.2434 8.33392C20.2646 8.66439 20.1882 8.9938 20.0238 9.28125ZM17.7186 20.25H9.28115V21.0938C9.28115 21.3175 9.37004 21.5321 9.52828 21.6904C9.68651 21.8486 9.90112 21.9375 10.1249 21.9375H16.8749C17.0987 21.9375 17.3133 21.8486 17.4715 21.6904C17.6298 21.5321 17.7186 21.3175 17.7186 21.0938V20.25ZM8.68715 18.5625H18.3126C20.989 17.7019 22.6833 15.2685 23.3988 10.9688H3.60102C4.31652 15.2685 6.01077 17.7019 8.68715 18.5625Z" fill="#3360D0"/>
</svg>
