<svg width="24" height="25" viewBox="0 0 24 25" fill="none" xmlns="http://www.w3.org/2000/svg">
<path d="M20.2503 0.750198C20.2503 0.750198 18.0836 5.82887 18.0836 10.0354C18.0836 11.3831 18.5451 12.5098 19.167 13.6321C19.882 14.9245 20.8104 16.2104 21.4918 17.817C22.0324 19.0932 22.417 20.5719 22.417 22.4169M2.91697 0.750198C2.91697 0.750198 5.08364 5.82887 5.08364 10.0354C5.08364 11.3831 4.62214 12.5098 4.0003 13.6321C3.2853 14.9245 2.35689 16.2104 1.67547 17.817C1.05379 19.2703 0.738827 20.8363 0.750303 22.4169" stroke="#3360D0" stroke-width="1.5" stroke-linecap="round" stroke-linejoin="round"/>
<path opacity="0.5" d="M5.08362 12.6669H18.0836M5.08362 10.5002H18.0836" stroke="#3360D0" stroke-width="1.5" stroke-linecap="round"/>
<path d="M21.3336 17.5419C14.8336 17.5419 12.1253 20.7919 11.5836 22.4169C11.042 20.7919 8.33362 17.5419 1.83362 17.5419" stroke="#3360D0" stroke-width="1.5" stroke-linecap="round"/>
</svg>
