<svg width="26" height="26" viewBox="0 0 26 26" fill="none" xmlns="http://www.w3.org/2000/svg">
<path d="M2.18616 21.9971C3.40924 23.7467 8.73057 25.1193 11.245 21.8454C13.9642 23.1454 18.4481 22.7424 22.1 20.7058C22.607 20.4241 23.0869 20.0666 23.3816 19.5639C24.0457 18.4318 24.0608 16.861 22.8497 14.5438C20.8292 9.50192 17.1968 5.07542 15.73 3.2955C15.4288 3.02142 13.5081 2.63142 12.3359 2.2555C11.8181 2.09625 10.855 1.99008 9.70341 3.50892C9.15632 4.22825 6.67441 5.99733 9.82257 7.18575C10.3112 7.31033 10.6697 7.53892 12.896 7.13267C13.1852 7.08283 13.9089 7.13267 14.4192 8.0275L15.4852 9.55175C15.5848 9.69296 15.6478 9.85678 15.6682 10.0284C15.8546 11.6523 15.8481 13.6847 16.7537 14.7149C15.3562 13.7031 11.7011 12.5028 8.94724 15.9196M2.16882 14.0183C3.40852 12.9134 4.989 12.2659 6.64761 12.1835C8.30621 12.1012 9.94307 12.5888 11.2862 13.5655" stroke="#3360D0" stroke-width="1.5" stroke-linecap="round" stroke-linejoin="round"/>
</svg>
