<svg width="93" height="93" viewBox="0 0 93 93" fill="none" xmlns="http://www.w3.org/2000/svg">
<path d="M28.675 27.125H17.825C17.2084 27.125 16.617 27.37 16.181 27.806C15.745 28.242 15.5 28.8334 15.5 29.45V63.55C15.5 63.8553 15.5601 64.1577 15.677 64.4397C15.7938 64.7218 15.9651 64.9781 16.181 65.194C16.3969 65.4099 16.6532 65.5812 16.9353 65.698C17.2173 65.8149 17.5197 65.875 17.825 65.875H28.675C28.9803 65.875 29.2827 65.8149 29.5647 65.698C29.8468 65.5812 30.1031 65.4099 30.319 65.194C30.5349 64.9781 30.7062 64.7218 30.823 64.4397C30.9399 64.1577 31 63.8553 31 63.55V29.45C31 28.8334 30.755 28.242 30.319 27.806C29.883 27.37 29.2916 27.125 28.675 27.125ZM75.175 27.125H64.325C63.7084 27.125 63.117 27.37 62.681 27.806C62.245 28.242 62 28.8334 62 29.45V63.55C62 63.8553 62.0601 64.1577 62.177 64.4397C62.2938 64.7218 62.4651 64.9781 62.681 65.194C62.8969 65.4099 63.1532 65.5812 63.4353 65.698C63.7173 65.8149 64.0197 65.875 64.325 65.875H75.175C75.4803 65.875 75.7827 65.8149 76.0647 65.698C76.3468 65.5812 76.6031 65.4099 76.819 65.194C77.0349 64.9781 77.2062 64.7218 77.323 64.4397C77.4399 64.1577 77.5 63.8553 77.5 63.55V29.45C77.5 28.8334 77.255 28.242 76.819 27.806C76.383 27.37 75.7916 27.125 75.175 27.125Z" stroke="#3360D0" stroke-width="1.5" stroke-linecap="round" stroke-linejoin="round"/>
<path d="M31 46.5H62M3.875 55.8V37.2C3.875 36.5834 4.11995 35.992 4.55598 35.556C4.992 35.12 5.58337 34.875 6.2 34.875H13.175C13.7916 34.875 14.383 35.12 14.819 35.556C15.255 35.992 15.5 36.5834 15.5 37.2V55.8C15.5 56.4166 15.255 57.008 14.819 57.444C14.383 57.88 13.7916 58.125 13.175 58.125H6.2C5.58337 58.125 4.992 57.88 4.55598 57.444C4.11995 57.008 3.875 56.4166 3.875 55.8ZM89.125 55.8V37.2C89.125 36.5834 88.88 35.992 88.444 35.556C88.008 35.12 87.4166 34.875 86.8 34.875H79.825C79.2084 34.875 78.617 35.12 78.181 35.556C77.745 35.992 77.5 36.5834 77.5 37.2V55.8C77.5 56.4166 77.745 57.008 78.181 57.444C78.617 57.88 79.2084 58.125 79.825 58.125H86.8C87.4166 58.125 88.008 57.88 88.444 57.444C88.88 57.008 89.125 56.4166 89.125 55.8Z" stroke="#3360D0" stroke-width="1.5" stroke-linecap="round" stroke-linejoin="round"/>
</svg>
