<svg width="26" height="26" viewBox="0 0 26 26" fill="none" xmlns="http://www.w3.org/2000/svg">
<path d="M8.01671 7.58333H4.98337C4.81098 7.58333 4.64565 7.65181 4.52375 7.77371C4.40186 7.89561 4.33337 8.06094 4.33337 8.23333V17.7667C4.33337 17.852 4.35019 17.9365 4.38285 18.0154C4.41552 18.0943 4.4634 18.1659 4.52375 18.2263C4.58411 18.2866 4.65577 18.3345 4.73463 18.3672C4.81349 18.3999 4.89801 18.4167 4.98337 18.4167H8.01671C8.10207 18.4167 8.18659 18.3999 8.26545 18.3672C8.34431 18.3345 8.41597 18.2866 8.47633 18.2263C8.53668 18.1659 8.58456 18.0943 8.61723 18.0154C8.64989 17.9365 8.66671 17.852 8.66671 17.7667V8.23333C8.66671 8.06094 8.59823 7.89561 8.47633 7.77371C8.35443 7.65181 8.1891 7.58333 8.01671 7.58333ZM21.0167 7.58333H17.9834C17.811 7.58333 17.6457 7.65181 17.5238 7.77371C17.4019 7.89561 17.3334 8.06094 17.3334 8.23333V17.7667C17.3334 17.852 17.3502 17.9365 17.3829 18.0154C17.4155 18.0943 17.4634 18.1659 17.5238 18.2263C17.5841 18.2866 17.6558 18.3345 17.7346 18.3672C17.8135 18.3999 17.898 18.4167 17.9834 18.4167H21.0167C21.1021 18.4167 21.1866 18.3999 21.2655 18.3672C21.3443 18.3345 21.416 18.2866 21.4763 18.2263C21.5367 18.1659 21.5846 18.0943 21.6172 18.0154C21.6499 17.9365 21.6667 17.852 21.6667 17.7667V8.23333C21.6667 8.06094 21.5982 7.89561 21.4763 7.77371C21.3544 7.65181 21.1891 7.58333 21.0167 7.58333Z" stroke="#3360D0" stroke-width="1.5" stroke-linecap="round" stroke-linejoin="round"/>
<path d="M8.66671 13H17.3334M1.08337 15.6V10.4C1.08337 10.2276 1.15186 10.0623 1.27375 9.94038C1.39565 9.81848 1.56098 9.75 1.73337 9.75H3.68337C3.85576 9.75 4.02109 9.81848 4.14299 9.94038C4.26489 10.0623 4.33337 10.2276 4.33337 10.4V15.6C4.33337 15.7724 4.26489 15.9377 4.14299 16.0596C4.02109 16.1815 3.85576 16.25 3.68337 16.25H1.73337C1.56098 16.25 1.39565 16.1815 1.27375 16.0596C1.15186 15.9377 1.08337 15.7724 1.08337 15.6ZM24.9167 15.6V10.4C24.9167 10.2276 24.8482 10.0623 24.7263 9.94038C24.6044 9.81848 24.4391 9.75 24.2667 9.75H22.3167C22.1443 9.75 21.979 9.81848 21.8571 9.94038C21.7352 10.0623 21.6667 10.2276 21.6667 10.4V15.6C21.6667 15.7724 21.7352 15.9377 21.8571 16.0596C21.979 16.1815 22.1443 16.25 22.3167 16.25H24.2667C24.4391 16.25 24.6044 16.1815 24.7263 16.0596C24.8482 15.9377 24.9167 15.7724 24.9167 15.6Z" stroke="#3360D0" stroke-width="1.5" stroke-linecap="round" stroke-linejoin="round"/>
</svg>
