<svg width="26" height="26" viewBox="0 0 26 26" fill="none" xmlns="http://www.w3.org/2000/svg">
<path d="M17.3334 3.25001C17.3334 2.96269 17.2193 2.68714 17.0161 2.48397C16.8129 2.28081 16.5374 2.16667 16.2501 2.16667H9.75008C9.46276 2.16667 9.18721 2.28081 8.98405 2.48397C8.78088 2.68714 8.66675 2.96269 8.66675 3.25001V8.66667H3.25008C2.96276 8.66667 2.68721 8.78081 2.48405 8.98397C2.28088 9.18714 2.16675 9.46269 2.16675 9.75V16.25C2.16675 16.5373 2.28088 16.8129 2.48405 17.016C2.68721 17.2192 2.96276 17.3333 3.25008 17.3333H8.66675V22.75C8.66675 23.0373 8.78088 23.3129 8.98405 23.516C9.18721 23.7192 9.46276 23.8333 9.75008 23.8333H16.2501C16.5374 23.8333 16.8129 23.7192 17.0161 23.516C17.2193 23.3129 17.3334 23.0373 17.3334 22.75V17.3333H22.7501C23.0374 17.3333 23.3129 17.2192 23.5161 17.016C23.7193 16.8129 23.8334 16.5373 23.8334 16.25V9.75C23.8334 9.46269 23.7193 9.18714 23.5161 8.98397C23.3129 8.78081 23.0374 8.66667 22.7501 8.66667H17.3334V3.25001Z" stroke="#3360D0" stroke-width="2" stroke-linecap="round" stroke-linejoin="round"/>
</svg>
