<svg width="26" height="26" viewBox="0 0 26 26" fill="none" xmlns="http://www.w3.org/2000/svg">
<path d="M13.0001 22.75H16.2257C16.2705 21.2673 16.4879 20.4521 16.8779 20.3044C20.9458 18.7606 23.8334 14.8601 23.8334 10.2917H2.16675C2.16675 14.761 4.93087 18.5916 8.86012 20.2009C9.27071 20.3692 9.57747 21.2189 9.78041 22.75H13.0001Z" stroke="#3360D0" stroke-width="2" stroke-linejoin="round"/>
<path d="M7.82329 14.0958C8.01829 14.7386 8.27594 15.2698 8.59625 15.6894C8.93025 16.1191 9.32008 16.5024 9.75542 16.829M17.4417 4.34308C16.752 3.95794 16.0151 3.66423 15.2495 3.46938M11.9437 3.25C8.08546 3.69579 4.953 6.55308 4.0625 10.2917M21.9375 10.29C21.5807 8.79432 20.858 7.41065 19.8342 6.26329" stroke="#3360D0" stroke-width="2" stroke-linecap="round"/>
</svg>
