<svg width="26" height="26" viewBox="0 0 26 26" fill="none" xmlns="http://www.w3.org/2000/svg">
<path d="M20.0418 9.74999H17.8752M17.8752 9.74999H15.7085M17.8752 9.74999V7.58333M17.8752 9.74999V11.9167" stroke="#3360D0" stroke-width="2" stroke-linecap="round"/>
<path d="M13.0001 6.0385L12.4064 6.59316C12.4824 6.67451 12.5743 6.73937 12.6765 6.78372C12.7786 6.82806 12.8887 6.85094 13.0001 6.85094C13.1114 6.85094 13.2216 6.82806 13.3237 6.78372C13.4258 6.73937 13.5177 6.67451 13.5937 6.59316L13.0001 6.0385ZM2.87308 14.8222C2.92668 14.9166 2.99867 14.9994 3.0848 15.0655C3.17093 15.1317 3.26944 15.1799 3.37452 15.2073C3.47959 15.2347 3.5891 15.2408 3.69657 15.2252C3.80404 15.2096 3.90729 15.1726 4.00021 15.1164C4.09313 15.0602 4.17385 14.9859 4.23758 14.898C4.30131 14.81 4.34677 14.7102 4.37127 14.6044C4.39577 14.4986 4.39881 14.389 4.38021 14.282C4.36162 14.175 4.32176 14.0728 4.263 13.9815L2.87308 14.8222ZM7.08183 17.5186C7.00842 17.4381 6.91957 17.3732 6.82057 17.3277C6.72157 17.2823 6.61444 17.2572 6.50556 17.254C6.39667 17.2508 6.28824 17.2695 6.18673 17.309C6.08522 17.3485 5.99269 17.4081 5.91465 17.4841C5.83661 17.5601 5.77465 17.651 5.73246 17.7514C5.69026 17.8519 5.6687 17.9597 5.66904 18.0687C5.66938 18.1776 5.69163 18.2854 5.73446 18.3855C5.77728 18.4857 5.83981 18.5762 5.91833 18.6517L7.08183 17.5186ZM2.97925 10.0945C2.97925 6.94741 4.35291 5.00283 6.05158 4.33658C7.747 3.6725 10.1184 4.147 12.4064 6.59316L13.5937 5.48383C11.0067 2.717 7.9615 1.84383 5.459 2.82316C2.95975 3.8025 1.35425 6.49133 1.35425 10.0945H2.97925ZM16.8026 21.6233C18.42 20.3114 20.357 18.5532 21.8975 16.5891C23.4217 14.6456 24.6459 12.3868 24.6459 10.0923H23.0209C23.0209 11.8387 22.0676 13.7367 20.6181 15.5859C19.1837 17.4157 17.3507 19.0872 15.7799 20.3612L16.8026 21.6233ZM24.6459 10.0923C24.6459 6.49025 23.0404 3.80141 20.5401 2.82316C18.0376 1.84275 14.9934 2.71483 12.4064 5.48275L13.5937 6.59316C15.8817 4.147 18.2532 3.67141 19.9486 4.3355C21.6472 5.00066 23.0209 6.94633 23.0209 10.0923H24.6459ZM9.19758 21.6244C10.5734 22.7424 11.5289 23.5625 13.0001 23.5625V21.9375C12.2168 21.9375 11.7293 21.5865 10.2202 20.3623L9.19758 21.6244ZM15.7799 20.3612C14.2708 21.5854 13.7833 21.9375 13.0001 21.9375V23.5625C14.4712 23.5625 15.4278 22.7424 16.8037 21.6244L15.7799 20.3612ZM4.26408 13.9815C3.45266 12.6425 2.97925 11.3262 2.97925 10.0945H1.35425C1.35425 11.7325 1.97825 13.3445 2.87308 14.8222L4.26408 13.9815ZM10.2202 20.3623C9.12043 19.4754 8.07256 18.5259 7.08183 17.5186L5.91833 18.6517C6.95225 19.7056 8.04792 20.6982 9.19758 21.6244L10.2202 20.3623Z" fill="#3360D0"/>
</svg>
