<svg width="26" height="26" viewBox="0 0 26 26" fill="none" xmlns="http://www.w3.org/2000/svg">
<path d="M20.5833 16.25V20.4631C20.5833 22.8735 19.786 23.8333 17.213 23.8333H8.78579C6.37646 23.8333 5.41663 23.036 5.41663 20.4631V16.25C5.41663 15.2541 5.61277 14.268 5.99387 13.348C6.37497 12.4279 6.93356 11.5919 7.63773 10.8878C8.34191 10.1836 9.17789 9.625 10.0979 9.2439C11.018 8.86281 12.0041 8.66666 13 8.66666C13.9958 8.66666 14.9819 8.86281 15.902 9.2439C16.822 9.625 17.658 10.1836 18.3622 10.8878C19.0664 11.5919 19.6249 12.4279 20.006 13.348C20.3871 14.268 20.5833 15.2541 20.5833 16.25Z" stroke="#3360D0" stroke-width="1.5" stroke-linecap="round"/>
<path d="M17.3333 16.25C17.3333 15.1007 16.8768 13.9985 16.0641 13.1859C15.2515 12.3732 14.1493 11.9167 13 11.9167C11.8507 11.9167 10.7485 12.3732 9.93588 13.1859C9.12322 13.9985 8.66667 15.1007 8.66667 16.25M13 18.4167L14.0833 16.25M15.1667 8.66666V5.41666M10.8333 8.66666V5.41666M17.6713 5.41666H8.32867C7.37101 5.41666 6.89217 5.41666 6.47076 5.25199C6.33124 5.19839 6.19764 5.1305 6.07209 5.04941C5.69292 4.81107 5.42751 4.43407 4.89667 3.68116C4.48284 3.09507 4.27592 2.80149 4.34742 2.56207C4.37045 2.48577 4.41003 2.41549 4.46334 2.35624C4.63667 2.16666 5.00934 2.16666 5.75576 2.16666H20.2464C20.9928 2.16666 21.3655 2.16666 21.5378 2.35624C21.5919 2.41691 21.6306 2.48552 21.6537 2.56207C21.7252 2.80149 21.5183 3.09507 21.1044 3.68116C20.5736 4.43407 20.3082 4.80999 19.929 5.04941C19.8035 5.1305 19.6699 5.19839 19.5303 5.25199C19.1068 5.41666 18.629 5.41666 17.6713 5.41666Z" stroke="#3360D0" stroke-width="1.5" stroke-linecap="round"/>
</svg>
