<svg width="24" height="24" viewBox="0 0 24 24" fill="none" xmlns="http://www.w3.org/2000/svg">
<g clip-path="url(#clip0_375_387)">
<path d="M15.7311 10.567L16.5151 10.175C16.7111 10.077 17.0051 10.175 17.2011 10.371L18.2791 12.527C18.5731 13.017 19.0631 13.31 19.5531 13.31C19.7491 13.31 20.0431 13.212 20.2381 13.114C20.9241 12.722 21.2181 11.841 20.9241 11.154L19.8461 9C19.4551 8.216 18.7691 7.53 17.8861 7.236C17.0051 6.942 16.1231 7.04 15.2411 7.432L13.0861 8.51L10.4401 9.881C10.2441 9.979 10.0481 9.979 9.8521 9.783L8.3821 8.313C7.7951 7.725 6.9121 7.725 6.3251 8.313C5.7371 8.901 5.7371 9.783 6.3251 10.371L7.7951 11.841C8.8721 12.918 10.4401 13.114 11.7141 12.526L13.0861 11.841L14.1631 13.801L11.3221 15.661C10.7341 16.054 10.3421 16.544 10.0481 17.131L8.7741 20.66C8.4801 21.444 8.7741 22.228 9.5581 22.62C9.7541 22.718 9.9501 22.718 10.1461 22.718C10.7341 22.718 11.2241 22.424 11.5181 21.836L12.7921 18.308C12.7954 18.2571 12.8171 18.2091 12.8532 18.1731C12.8892 18.137 12.9372 18.1153 12.9881 18.112L15.3391 16.545L15.5351 17.133C16.0251 18.504 17.2991 19.386 18.7691 19.386C19.0631 19.386 19.3571 19.386 19.6501 19.288L21.9041 18.7C22.6881 18.504 23.1781 17.72 22.9821 16.937C22.9373 16.7503 22.856 16.5742 22.7431 16.4189C22.6301 16.2636 22.4876 16.1322 22.3237 16.032C22.1599 15.9319 21.9779 15.8651 21.7882 15.8354C21.5984 15.8057 21.4047 15.8137 21.2181 15.859L18.9651 16.447C18.7691 16.545 18.4751 16.349 18.3771 16.153L18.1811 15.565M7.1501 1.186C6.53218 1.18669 5.93019 1.38205 5.42962 1.74434C4.92906 2.10663 4.55537 2.61743 4.36163 3.20419C4.16789 3.79095 4.16394 4.42384 4.35036 5.01296C4.53678 5.60209 4.90408 6.1175 5.4001 6.486M7.0531 15.368L6.4651 15.76C5.8771 16.152 5.4851 16.641 5.1911 17.23L3.9171 20.757C3.6231 21.541 3.9171 22.324 4.7011 22.717C4.8971 22.814 5.0931 22.814 5.2891 22.814C5.5831 22.814 5.8771 22.716 6.0731 22.52M3.4731 8.313C2.8861 7.725 2.0031 7.725 1.4161 8.313C0.828098 8.901 0.828098 9.783 1.4161 10.371L2.8861 11.841C3.4731 12.428 4.3561 12.821 5.1391 12.821M11.6581 7.065C12.4378 7.065 13.1856 6.75525 13.737 6.20389C14.2883 5.65253 14.5981 4.90473 14.5981 4.125C14.5981 3.34526 14.2883 2.59746 13.737 2.0461C13.1856 1.49475 12.4378 1.185 11.6581 1.185C10.8784 1.185 10.1306 1.49475 9.5792 2.0461C9.02785 2.59746 8.7181 3.34526 8.7181 4.125C8.7181 4.90473 9.02785 5.65253 9.5792 6.20389C10.1306 6.75525 10.8784 7.065 11.6581 7.065Z" stroke="#3360D0" stroke-width="1.5" stroke-miterlimit="10" stroke-linecap="round" stroke-linejoin="round"/>
</g>
<defs>
<clipPath id="clip0_375_387">
<rect width="24" height="24" fill="white"/>
</clipPath>
</defs>
</svg>
