<svg width="26" height="26" viewBox="0 0 26 26" fill="none" xmlns="http://www.w3.org/2000/svg">
<path fill-rule="evenodd" clip-rule="evenodd" d="M19.5 2.97916C19.2845 2.97916 19.0778 2.89355 18.9255 2.74118C18.7731 2.58881 18.6875 2.38214 18.6875 2.16666C18.6875 1.95117 18.7731 1.74451 18.9255 1.59213C19.0778 1.43976 19.2845 1.35416 19.5 1.35416H23.8333C23.9939 1.3543 24.1509 1.40203 24.2844 1.49131C24.4178 1.5806 24.5219 1.70745 24.5833 1.85582C24.6447 2.0042 24.6608 2.16746 24.6295 2.32497C24.5983 2.48249 24.521 2.6272 24.4075 2.74082L21.4608 5.68749H23.8333C24.0488 5.68749 24.2555 5.77309 24.4079 5.92547C24.5602 6.07784 24.6458 6.2845 24.6458 6.49999C24.6458 6.71548 24.5602 6.92214 24.4079 7.07451C24.2555 7.22689 24.0488 7.31249 23.8333 7.31249H19.5C19.3394 7.31235 19.1825 7.26462 19.049 7.17533C18.9155 7.08604 18.8115 6.9592 18.75 6.81082C18.6886 6.66245 18.6725 6.49919 18.7038 6.34168C18.7351 6.18416 18.8123 6.03945 18.9258 5.92582L21.8725 2.97916H19.5ZM14.625 9.47916C14.4095 9.47916 14.2028 9.39355 14.0505 9.24118C13.8981 9.08881 13.8125 8.88215 13.8125 8.66666C13.8125 8.45117 13.8981 8.24451 14.0505 8.09213C14.2028 7.93976 14.4095 7.85416 14.625 7.85416H17.875C18.0356 7.8543 18.1925 7.90203 18.326 7.99132C18.4595 8.0806 18.5635 8.20745 18.625 8.35582C18.6864 8.5042 18.7025 8.66746 18.6712 8.82497C18.6399 8.98249 18.5627 9.1272 18.4492 9.24082L16.5858 11.1042H17.875C18.0905 11.1042 18.2972 11.1898 18.4495 11.3421C18.6019 11.4945 18.6875 11.7012 18.6875 11.9167C18.6875 12.1321 18.6019 12.3388 18.4495 12.4912C18.2972 12.6436 18.0905 12.7292 17.875 12.7292H14.625C14.4644 12.729 14.3075 12.6813 14.174 12.592C14.0405 12.5027 13.9365 12.3759 13.875 12.2275C13.8136 12.0791 13.7975 11.9159 13.8288 11.7583C13.8601 11.6008 13.9373 11.4561 14.0508 11.3425L15.9142 9.47916H14.625Z" fill="#3360D0"/>
<path opacity="0.5" d="M13.0001 23.8333C18.9833 23.8333 23.8334 18.9832 23.8334 13C23.8334 12.4984 23.0816 12.415 22.8227 12.8451C22.2704 13.7598 21.5173 14.5368 20.6203 15.1173C19.7232 15.6978 18.7059 16.0666 17.6452 16.1957C16.5846 16.3248 15.5085 16.2109 14.4984 15.8625C13.4883 15.5141 12.5707 14.9404 11.8152 14.1848C11.0597 13.4293 10.486 12.5118 10.1376 11.5017C9.78922 10.4916 9.67525 9.41549 9.80435 8.35484C9.93345 7.29419 10.3022 6.27683 10.8827 5.37981C11.4633 4.48279 12.2403 3.72964 13.155 3.17741C13.5851 2.91741 13.5017 2.16666 13.0001 2.16666C7.01683 2.16666 2.16675 7.01674 2.16675 13C2.16675 18.9832 7.01683 23.8333 13.0001 23.8333Z" fill="#3360D0"/>
</svg>
