<svg width="26" height="26" viewBox="0 0 26 26" fill="none" xmlns="http://www.w3.org/2000/svg">
<path d="M13.0001 8.66667L17.1211 11.661M13.0001 8.66667L8.87908 11.661M13.0001 8.66667V5.41667M17.1211 11.661L15.547 16.5057H10.4542M17.1211 11.661L20.0417 10.2917M8.87908 11.661L10.4542 16.5057M8.87908 11.661L5.95841 10.2917M13.0001 5.41667L9.34275 2.79933M13.0001 5.41667L16.6574 2.79933M20.0417 10.2917L23.7792 14.0833M20.0417 10.2917L21.1251 5.83375M10.4542 16.5057L8.66675 18.9583M15.5481 16.5057L17.3334 18.9583M17.3334 18.9583L22.3839 18.4167M17.3334 18.9583L14.6251 23.712M8.66675 18.9583L3.61625 18.4167M8.66675 18.9583L11.3751 23.712M5.95841 10.2917L2.22091 14.0833M5.95841 10.2917L4.87508 5.83375M23.8334 13C23.8334 18.9832 18.9833 23.8333 13.0001 23.8333C7.01683 23.8333 2.16675 18.9832 2.16675 13C2.16675 7.01675 7.01683 2.16667 13.0001 2.16667C18.9833 2.16667 23.8334 7.01675 23.8334 13Z" stroke="#3360D0" stroke-width="1.5" stroke-linecap="round" stroke-linejoin="round"/>
</svg>
