<svg width="26" height="26" viewBox="0 0 26 26" fill="none" xmlns="http://www.w3.org/2000/svg">
<path d="M9.74353 2.3075C9.70383 2.09433 9.58279 1.90494 9.40599 1.7794C9.22919 1.65385 9.0105 1.60198 8.79615 1.63475C8.60461 1.66408 8.43049 1.76267 8.30679 1.91183C8.18309 2.06098 8.11842 2.25034 8.12503 2.444C6.15553 2.92988 4.90428 3.9065 4.1649 5.109C3.4239 6.3115 3.25003 7.64888 3.25003 8.7295V9.243L2.08978 10.8501C1.89946 11.1136 1.76375 11.4125 1.69064 11.7291C1.61753 12.0458 1.60849 12.3739 1.66406 12.6942C1.71963 13.0144 1.83868 13.3203 2.01421 13.5938C2.18973 13.8674 2.4182 14.1031 2.68615 14.287L12.3224 20.9024C14.0826 22.1106 16.1675 22.757 18.3024 22.7565H20.7383C21.7025 22.7556 22.6271 22.3722 23.3089 21.6904C23.9907 21.0085 24.3742 20.084 24.375 19.1198C24.375 17.0495 22.6363 15.6228 21.0958 14.9435C20.5742 14.7128 20.1338 14.3975 19.8445 13.9718L16.4353 8.1055C16.6381 8.06349 16.8164 7.94365 16.9318 7.77169C17.0472 7.59973 17.0907 7.38937 17.0528 7.18575C17.0135 6.97238 16.8925 6.78274 16.7156 6.65712C16.5387 6.53151 16.3198 6.4798 16.1054 6.513C13.0667 6.994 10.2392 5.044 9.74353 2.3075ZM14.599 8.17863L18.4535 14.8119L18.4795 14.8525C18.9914 15.6244 19.7292 16.1151 20.4393 16.4288C21.2469 16.7863 21.9164 17.2916 22.3243 17.875H18.265C17.1135 17.8744 15.9892 17.5242 15.041 16.8708L12.4508 15.0881L13.7443 14.4284C13.9404 14.3281 14.1141 14.1889 14.2549 14.0194C14.3956 13.8499 14.5004 13.6536 14.5628 13.4423C14.6253 13.231 14.6441 13.0093 14.6182 12.7905C14.5923 12.5717 14.5222 12.3605 14.4122 12.1696L13.4875 10.5625C13.2791 10.2023 12.9405 9.93578 12.5414 9.81787C12.1423 9.69996 11.7132 9.73965 11.3425 9.92875L7.67003 11.7975L6.11328 10.725L7.99015 9.867C8.19589 9.77283 8.37969 9.63674 8.52979 9.46743C8.67989 9.29813 8.79298 9.09934 8.86182 8.88381C8.93066 8.66827 8.95372 8.44073 8.92954 8.21577C8.90536 7.9908 8.83447 7.77336 8.7214 7.57738L7.00378 4.59875C7.49972 4.33055 8.03007 4.13153 8.58003 4.00725C9.60865 6.35538 11.9649 7.95763 14.599 8.17863ZM10.9265 14.04L9.19265 12.8456L12.0787 11.375L13.0049 12.9805L10.9265 14.04ZM5.54778 5.9605C5.60736 5.863 5.67344 5.76713 5.74603 5.67288L7.31253 8.38988L4.87503 9.50625V8.7295C4.87503 7.8 5.02778 6.8055 5.54778 5.9605ZM3.40765 11.8008L3.8724 11.1573L14.1197 18.2098C15.3392 19.049 16.7847 19.4983 18.265 19.4984H22.7143C22.6256 19.9576 22.38 20.3717 22.0195 20.6697C21.6589 20.9677 21.206 21.1309 20.7383 21.1315H18.3008C16.4949 21.1319 14.7312 20.5852 13.2422 19.5634L3.60753 12.9464C3.51825 12.885 3.44215 12.8064 3.38369 12.7152C3.32523 12.624 3.2856 12.5221 3.26713 12.4153C3.24866 12.3086 3.25172 12.1992 3.27613 12.0937C3.30054 11.9881 3.34581 11.8885 3.40928 11.8008" fill="#3360D0"/>
</svg>
